<svg width="145" height="116" viewBox="0 0 145 116" fill="none" xmlns="http://www.w3.org/2000/svg">
<path d="M140.686 79.3545H137.1V55.1242C137.1 52.2775 135.957 49.5429 133.94 47.5256L111.547 25.1332C109.53 23.1159 106.795 21.9727 103.949 21.9727H94.0636V11.2136C94.0636 5.27372 89.2445 0.454544 83.3045 0.454544H11.5773C5.63735 0.454544 0.818176 5.27372 0.818176 11.2136V82.9409C0.818176 88.8808 5.63735 93.7 11.5773 93.7H15.1636C15.1636 105.58 24.802 115.218 36.6818 115.218C48.5616 115.218 58.2 105.58 58.2 93.7H86.8909C86.8909 105.58 96.5293 115.218 108.409 115.218C120.289 115.218 129.927 105.58 129.927 93.7H140.686C142.659 93.7 144.273 92.0861 144.273 90.1136V82.9409C144.273 80.9684 142.659 79.3545 140.686 79.3545ZM36.6818 104.459C30.7419 104.459 25.9227 99.6399 25.9227 93.7C25.9227 87.7601 30.7419 82.9409 36.6818 82.9409C42.6217 82.9409 47.4409 87.7601 47.4409 93.7C47.4409 99.6399 42.6217 104.459 36.6818 104.459ZM108.409 104.459C102.469 104.459 97.65 99.6399 97.65 93.7C97.65 87.7601 102.469 82.9409 108.409 82.9409C114.349 82.9409 119.168 87.7601 119.168 93.7C119.168 99.6399 114.349 104.459 108.409 104.459ZM126.341 57.8364H94.0636V32.7318H103.949L126.341 55.1242V57.8364Z" fill="#E984F6"/>
</svg>
